name N:\Shared_Data\HIL\Data Collection\CoPD-X-MoreData\processed\iteration012\grf0012.mot
datacolumns 19
datarows 82
range 2325.696139 2325.831141
endheader
time	ground_force1_vx	ground_force1_vy	ground_force1_vz	ground_force1_px	ground_force1_py	ground_force1_pz	ground_force2_vx	ground_force2_vy	ground_force2_vz	ground_force2_px	ground_force2_py	ground_force2_pz	ground_torque1_x	ground_torque1_y	ground_torque1_z	ground_torque2_x	ground_torque2_y	ground_torque2_z	
2325.696139	-22.33929747	732.0239697	42.12007787	7.851266759	0	0.1648709643	0	0	0	0	0	0	0	10.13407987	0	0	0	0	
2325.697811	-22.99314839	733.8614691	42.20943509	7.851665842	0	0.1648817936	0	0	0	0	0	0	0	10.29746942	0	0	0	0	
2325.699476	-23.65339595	735.7021085	42.30331123	7.852070833	0	0.1648943611	0	0	0	0	0	0	0	10.46336418	0	0	0	0	
2325.70114	-24.31949559	737.5451459	42.40196789	7.852481778	0	0.1649087341	0	0	0	0	0	0	0	10.63152127	0	0	0	0	
2325.702808	-24.99087486	739.3898795	42.50567122	7.852898719	0	0.1649249779	0	0	0	0	0	0	0	10.80168749	0	0	0	0	
2325.704471	-25.66693509	741.2356439	42.61469002	7.853321694	0	0.1649431551	0	0	0	0	0	0	0	10.97359993	0	0	0	0	
2325.706142	-26.34705313	743.081806	42.72929395	7.853750744	0	0.1649633252	0	0	0	0	0	0	0	11.14698666	0	0	0	0	
2325.70781	-27.03058312	744.9277601	42.8497517	7.854185907	0	0.1649855446	0	0	0	0	0	0	0	11.32156745	0	0	0	0	
2325.709476	-27.7168583	746.7729237	42.97632925	7.854627224	0	0.1650098664	0	0	0	0	0	0	0	11.49705447	0	0	0	0	
2325.711145	-28.4051929	748.6167323	43.10928816	7.85507474	0	0.1650363396	0	0	0	0	0	0	0	11.67315304	0	0	0	0	
2325.712802	-29.09488402	750.4586345	43.24888386	7.855528501	0	0.1650650097	0	0	0	0	0	0	0	11.84956247	0	0	0	0	
2325.714474	-29.78521355	752.2980872	43.39536405	7.855988561	0	0.1650959178	0	0	0	0	0	0	0	12.02597678	0	0	0	0	
2325.716144	-30.47545013	754.1345498	43.54896716	7.856454977	0	0.1651291007	0	0	0	0	0	0	0	12.20208554	0	0	0	0	
2325.717803	-31.16485113	755.9674796	43.70992086	7.856927814	0	0.1651645912	0	0	0	0	0	0	0	12.37757471	0	0	0	0	
2325.719473	-31.85266461	757.796326	43.87844061	7.857407142	0	0.165202417	0	0	0	0	0	0	0	12.55212748	0	0	0	0	
2325.721142	-32.53813132	759.6205252	44.05472832	7.857893042	0	0.1652426017	0	0	0	0	0	0	0	12.7254251	0	0	0	0	
2325.722802	-33.2204867	761.4394954	44.23897105	7.858385599	0	0.165285164	0	0	0	0	0	0	0	12.89714775	0	0	0	0	
2325.724469	-33.89896285	763.2526311	44.43133983	7.858884908	0	0.1653301179	0	0	0	0	0	0	0	13.0669754	0	0	0	0	
2325.726136	-34.57279051	765.0592983	44.63198846	7.859391072	0	0.1653774728	0	0	0	0	0	0	0	13.23458864	0	0	0	0	
2325.727808	-35.24120104	766.858829	44.84105249	7.859904202	0	0.1654272334	0	0	0	0	0	0	0	13.3996696	0	0	0	0	
2325.729473	-35.90342831	768.650517	45.05864816	7.860424417	0	0.1654793996	0	0	0	0	0	0	0	13.56190274	0	0	0	0	
2325.731141	-36.55871069	770.4336128	45.28487149	7.860951844	0	0.165533967	0	0	0	0	0	0	0	13.72097573	0	0	0	0	
2325.732808	-37.20629288	772.2073193	45.51979737	7.861486616	0	0.1655909264	0	0	0	0	0	0	0	13.87658028	0	0	0	0	
2325.734474	-37.84542781	773.9707874	45.76347879	7.862028874	0	0.1656502643	0	0	0	0	0	0	0	14.028413	0	0	0	0	
2325.736141	-38.47537845	775.7231123	46.015946	7.862578765	0	0.165711963	0	0	0	0	0	0	0	14.17617619	0	0	0	0	
2325.737804	-39.09541967	777.4633298	46.27720589	7.86313644	0	0.1657760004	0	0	0	0	0	0	0	14.31957866	0	0	0	0	
2325.739469	-39.70483993	779.1904129	46.54724128	7.863702055	0	0.1658423506	0	0	0	0	0	0	0	14.45833654	0	0	0	0	
2325.741138	-40.30294309	780.903269	46.82601032	7.864275769	0	0.1659109835	0	0	0	0	0	0	0	14.59217407	0	0	0	0	
2325.742804	-40.88905008	782.6007369	47.11344598	7.864857744	0	0.1659818656	0	0	0	0	0	0	0	14.72082434	0	0	0	0	
2325.744469	-41.46250057	784.2815852	47.40945548	7.865448142	0	0.1660549596	0	0	0	0	0	0	0	14.84403011	0	0	0	0	
2325.74614	-42.02265462	785.9445102	47.71391989	7.866047128	0	0.1661302249	0	0	0	0	0	0	0	14.96154446	0	0	0	0	
2325.74781	-42.56889424	787.5881343	48.0266937	7.866654861	0	0.1662076175	0	0	0	0	0	0	0	15.07313162	0	0	0	0	
2325.749469	-43.10062498	789.2110055	48.34760443	7.867271501	0	0.1662870905	0	0	0	0	0	0	0	15.17856755	0	0	0	0	
2325.751138	-43.61727739	790.8115968	48.67645235	7.867897204	0	0.1663685941	0	0	0	0	0	0	0	15.27764073	0	0	0	0	
2325.752806	-44.11830851	792.3883061	49.01301018	7.86853212	0	0.1664520755	0	0	0	0	0	0	0	15.37015271	0	0	0	0	
2325.754476	-44.60320325	793.9394566	49.35702287	7.869176394	0	0.1665374797	0	0	0	0	0	0	0	15.45591882	0	0	0	0	
2325.756137	-45.07147572	795.463298	49.70820745	7.869830162	0	0.1666247489	0	0	0	0	0	0	0	15.53476869	0	0	0	0	
2325.757804	-45.52267058	796.9580077	50.06625288	7.870493552	0	0.1667138231	0	0	0	0	0	0	0	15.60654685	0	0	0	0	
2325.759474	-45.95636416	798.4216927	50.43081999	7.871166684	0	0.1668046402	0	0	0	0	0	0	0	15.67111324	0	0	0	0	
2325.761143	-46.37216572	799.8523919	50.80154148	7.871849666	0	0.166897136	0	0	0	0	0	0	0	15.7283437	0	0	0	0	
2325.762802	-46.76971845	801.2480791	51.17802197	7.872542593	0	0.1669912443	0	0	0	0	0	0	0	15.77813043	0	0	0	0	
2325.764468	-47.14870053	802.6066661	51.55983806	7.873245548	0	0.1670868969	0	0	0	0	0	0	0	15.8203824	0	0	0	0	
2325.766138	-47.50882605	803.9260064	51.94653856	7.873958602	0	0.167184024	0	0	0	0	0	0	0	15.85502568	0	0	0	0	
2325.767807	-47.84984589	805.2038992	52.33764466	7.874681811	0	0.167282554	0	0	0	0	0	0	0	15.88200387	0	0	0	0	
2325.76947	-48.17154847	806.4380944	52.73265028	7.875415215	0	0.1673824135	0	0	0	0	0	0	0	15.90127828	0	0	0	0	
2325.771137	-48.47376051	807.626297	53.13102239	7.876158839	0	0.1674835276	0	0	0	0	0	0	0	15.91282829	0	0	0	0	
2325.772804	-48.75634763	808.7661726	53.53220143	7.876912693	0	0.1675858196	0	0	0	0	0	0	0	15.9166515	0	0	0	0	
2325.774469	-49.01921491	809.8553531	53.93560189	7.877676771	0	0.1676892113	0	0	0	0	0	0	0	15.91276395	0	0	0	0	
2325.776142	-49.26230743	810.8914425	54.34061276	7.878451049	0	0.1677936229	0	0	0	0	0	0	0	15.90120027	0	0	0	0	
2325.77781	-49.48561059	811.8720234	54.74659828	7.879235488	0	0.1678989728	0	0	0	0	0	0	0	15.88201376	0	0	0	0	
2325.77947	-49.68915053	812.7946631	55.15289862	7.880030034	0	0.1680051779	0	0	0	0	0	0	0	15.85527651	0	0	0	0	
2325.781139	-49.87299435	813.6569207	55.55883067	7.880834614	0	0.1681121534	0	0	0	0	0	0	0	15.82107942	0	0	0	0	
2325.782807	-50.03725031	814.4563538	55.96368895	7.881649141	0	0.1682198127	0	0	0	0	0	0	0	15.77953221	0	0	0	0	
2325.784469	-50.18206795	815.1905256	56.36674652	7.882473513	0	0.1683280675	0	0	0	0	0	0	0	15.7307634	0	0	0	0	
2325.786144	-50.3076381	815.857012	56.76725609	7.883307612	0	0.1684368277	0	0	0	0	0	0	0	15.67492024	0	0	0	0	
2325.787803	-50.41419289	816.453409	57.16445109	7.884151308	0	0.1685460013	0	0	0	0	0	0	0	15.61216861	0	0	0	0	
2325.789468	-50.50200555	816.9773398	57.55754695	7.885004455	0	0.1686554945	0	0	0	0	0	0	0	15.54269288	0	0	0	0	
2325.791135	-50.57139027	817.426462	57.94574231	7.885866896	0	0.1687652113	0	0	0	0	0	0	0	15.46669571	0	0	0	0	
2325.792803	-50.62270189	817.798475	58.32822054	7.886738462	0	0.1688750538	0	0	0	0	0	0	0	15.38439783	0	0	0	0	
2325.79447	-50.65633548	818.091127	58.70415111	7.887618974	0	0.1689849221	0	0	0	0	0	0	0	15.2960378	0	0	0	0	
2325.796137	-50.67272593	818.3022219	59.07269124	7.888508241	0	0.169094714	0	0	0	0	0	0	0	15.20187164	0	0	0	0	
2325.79781	-50.67234735	818.4296259	59.43298753	7.889406067	0	0.169204325	0	0	0	0	0	0	0	15.10217248	0	0	0	0	
2325.799469	-50.65571241	818.4712745	59.78417773	7.890312245	0	0.1693136487	0	0	0	0	0	0	0	14.99723017	0	0	0	0	
2325.801139	-50.62337161	818.4251784	60.12539257	7.891226564	0	0.169422576	0	0	0	0	0	0	0	14.8873508	0	0	0	0	
2325.802806	-50.57591244	818.2894295	60.45575769	7.892148807	0	0.1695309957	0	0	0	0	0	0	0	14.77285618	0	0	0	0	
2325.804474	-50.51395838	818.0622066	60.77439562	7.893078753	0	0.169638794	0	0	0	0	0	0	0	14.6540833	0	0	0	0	
2325.806142	-50.43816797	817.7417807	61.08042788	7.894016177	0	0.1697458549	0	0	0	0	0	0	0	14.53138372	0	0	0	0	
2325.807807	-50.34923358	817.3265197	61.3729771	7.894960855	0	0.1698520598	0	0	0	0	0	0	0	14.4051229	0	0	0	0	
2325.809476	-50.24788024	816.8148928	61.65116924	7.895912559	0	0.1699572879	0	0	0	0	0	0	0	14.27567955	0	0	0	0	
2325.81114	-50.13486432	816.2054746	61.91413582	7.896871064	0	0.1700614158	-2.064863784	2.803252232	2.138204231	8.179879609	0	-0.02043741298	0	14.14344484	0	0	0.9050664423	0	
2325.812807	-50.01097212	815.4969483	62.16101625	7.897836145	0	0.1701643177	-2.850964275	4.22471339	3.004570055	8.181217613	0	-0.02043741298	0	14.00882163	0	0	1.284516773	0	
2325.814469	-49.87701835	814.6881084	62.39096016	7.898807581	0	0.1702658655	-3.708575442	5.880933608	3.964656402	8.182555616	0	-0.02043741298	0	13.87222365	0	0	1.708076889	0	
2325.816138	-49.73384461	813.7778636	62.60312976	7.899785151	0	0.1703659291	-4.61458972	7.756885013	4.996578507	8.18389362	0	-0.02043741298	0	13.73407466	0	0	2.166796517	0	
2325.817807	-49.58231761	812.7652382	62.79670222	7.900768642	0	0.1704643757	-5.543381866	9.831582503	6.075390757	8.185231623	0	-0.02043741298	0	13.59480746	0	0	2.65028403	0	
2325.819469	-49.4233275	811.6493729	62.9708721	7.901757843	0	0.1705610709	-6.468771099	12.08038453	7.175066531	8.186569627	0	-0.02043741298	0	13.45486301	0	0	3.147534439	0	
2325.82114	-49.25778594	810.4295264	63.12485373	7.90275255	0	0.1706558779	-7.365958594	14.47751228	8.270493478	8.18790763	0	-0.02043741298	0	13.31468941	0	0	3.647776054	0	
2325.822808	-49.08662418	809.1050744	63.25788357	7.903752565	0	0.1707486584	-8.213190006	16.99843919	9.339223478	8.189245634	0	-0.02043741298	0	13.17474086	0	0	4.141224886	0	
2325.824475	-48.91079098	807.6755095	63.36922263	7.904757694	0	0.1708392722	-8.99297268	19.62188228	10.36279465	8.190583637	0	-0.02043741298	0	13.03547657	0	0	4.619667412	0	
2325.826141	-48.73125049	806.1404398	63.45815879	7.905767755	0	0.1709275779	-9.69277253	22.33123742	11.32753828	8.191921641	0	-0.02043741298	0	12.89735963	0	0	5.076831864	0	
2325.827809	-48.54897996	804.4995874	63.52400909	7.906782567	0	0.1710134324	-10.30519609	25.11540254	12.22486584	8.193259644	0	-0.02043741298	0	12.76085589	0	0	5.508542614	0	
2325.829471	-48.36496742	802.7527855	63.56612199	7.907801961	0	0.171096692	-10.82772028	27.96901165	13.05109051	8.194597648	0	-0.02043741298	0	12.62643264	0	0	5.912677543	0	
2325.831141	-48.1802092	800.8999758	63.58387956	7.908825772	0	0.1711772119	-11.26206725	30.89215754	13.80687509	8.195935651	0	-0.02043741298	0	12.49455745	0	0	6.288964548	0	
